<?xml version="1.0" encoding="UTF-8"?>
<svg width="50px" height="41px" viewBox="0 0 50 41" version="1.1" xmlns="http://www.w3.org/2000/svg" xmlns:xlink="http://www.w3.org/1999/xlink">
    <!-- Generator: Sketch 52.3 (67297) - http://www.bohemiancoding.com/sketch -->
    <title>i-withdrawals-1</title>
    <desc>Created with Sketch.</desc>
    <g id="Page-1" stroke="none" stroke-width="1" fill="none" fill-rule="evenodd">
        <g id="Banking" transform="translate(-564.000000, -3561.000000)" fill="#000000">
            <g id="Group-8" transform="translate(515.000000, 3190.000000)">
                <g id="Group-11" transform="translate(42.000000, 267.000000)">
                    <g id="noun_identity_1450238" transform="translate(7.000000, 104.000000)">
                        <g id="i-withdrawals-1">
                            <path d="M49.9375,5.6530303 L30.0625,5.6530303 L30.0625,0.248484848 L19.9375,0.248484848 L19.9375,5.6530303 L0.0625,5.6530303 L0.0625,40.7515152 L49.9375,40.7515152 L49.9375,5.6530303 Z M22.4375,2.73333333 L27.5,2.73333333 L27.5,9.81515152 L22.4375,9.81515152 L22.4375,2.73333333 Z M47.4375,38.2666667 L2.5625,38.2666667 L2.5625,8.13787879 L19.9375,8.13787879 L19.9375,12.3 L30.0625,12.3 L30.0625,8.13787879 L47.4375,8.13787879 L47.4375,38.2666667 Z" id="Shape" fill-rule="nonzero"></path>
                            <rect id="Rectangle" x="27.5" y="28.0787879" width="14.125" height="2.48484848"></rect>
                            <rect id="Rectangle" x="27.5" y="20.7484848" width="7.875" height="2.48484848"></rect>
                            <path d="M14.5625,22.9227273 C16.8751924,22.9227273 18.75,21.0592821 18.75,18.7606061 C18.75,16.46193 16.8751924,14.5984848 14.5625,14.5984848 C12.2498076,14.5984848 10.375,16.46193 10.375,18.7606061 C10.375,21.0592821 12.2498076,22.9227273 14.5625,22.9227273 Z M14.5625,17.1454545 C15.4944805,17.1454545 16.25,17.8963951 16.25,18.8227273 C16.25,19.7490594 15.4944805,20.5 14.5625,20.5 C13.6305195,20.5 12.875,19.7490594 12.875,18.8227273 C12.875,17.8963951 13.6305195,17.1454545 14.5625,17.1454545 Z" id="Shape" fill-rule="nonzero"></path>
                            <path d="M14.5625,23.5439394 C12.7116804,23.5438647 10.937562,24.2788693 9.63471671,25.5854847 C8.33187146,26.8921002 7.60832595,28.6619873 7.625,30.5015152 L7.625,33.1727273 L21.5,33.1727273 L21.5,30.5015152 C21.5166741,28.6619873 20.7931285,26.8921002 19.4902833,25.5854847 C18.187438,24.2788693 16.4133196,23.5438647 14.5625,23.5439394 Z M19,30.6878788 L10.125,30.6878788 L10.125,30.5015152 C10.125,28.0656047 12.1117364,26.0909091 14.5625,26.0909091 C17.0132636,26.0909091 19,28.0656047 19,30.5015152 L19,30.6878788 Z" id="Shape" fill-rule="nonzero"></path>
                        </g>
                    </g>
                </g>
            </g>
        </g>
    </g>
</svg>