<?xml version="1.0" encoding="UTF-8"?>
<svg width="64px" height="45px" viewBox="0 0 64 45" version="1.1" xmlns="http://www.w3.org/2000/svg" xmlns:xlink="http://www.w3.org/1999/xlink">
    <!-- Generator: Sketch 52.3 (67297) - http://www.bohemiancoding.com/sketch -->
    <title>i-withdrawals-2</title>
    <desc>Created with Sketch.</desc>
    <g id="Page-1" stroke="none" stroke-width="1" fill="none" fill-rule="evenodd">
        <g id="Banking" transform="translate(-557.000000, -3705.000000)" fill="#000000" fill-rule="nonzero">
            <g id="Group-8" transform="translate(515.000000, 3190.000000)">
                <g id="Group-11" transform="translate(42.000000, 267.000000)">
                    <path d="M22.9565217,248 C21.4390226,248 20.173913,249.278696 20.173913,250.8125 L20.173913,255.097168 C19.7119103,255.06262 19.2531951,255.03125 18.7826087,255.03125 C8.42573148,255.03125 0,263.547521 0,274.015625 C0,284.48368 8.42573774,293 18.7826087,293 C25.2835075,293 31.0182685,289.64981 34.3913043,284.5625 L52.173913,284.5625 C53.6914122,284.5625 54.9565217,283.283797 54.9565217,281.75 L54.9565217,273.3125 L61.2173913,273.3125 C62.7348904,273.3125 64,272.033797 64,270.5 L64,262.0625 C64,260.528703 62.7348904,259.25 61.2173913,259.25 L57.7391304,259.25 L57.7391304,250.8125 C57.7391304,249.278696 56.4740209,248 54.9565217,248 L22.9565217,248 Z M22.9565217,250.8125 L54.9565217,250.8125 L54.9565217,259.25 L30.5652174,259.25 C28.3767562,257.463064 25.7900577,256.1664 22.9565217,255.514648 L22.9565217,250.8125 Z M18.7826087,257.84375 C27.6356237,257.84375 34.7826087,265.067509 34.7826087,274.015625 C34.7826087,282.963664 27.6356577,290.1875 18.7826087,290.1875 C9.92957357,290.1875 2.7826087,282.963664 2.7826087,274.015625 C2.7826087,265.067509 9.92957983,257.84375 18.7826087,257.84375 Z M18.6304348,260.634277 C17.9136401,260.713892 17.3757951,261.333813 17.3913043,262.0625 L17.3913043,264.303711 C16.122489,264.509244 14.964528,264.973373 14.0217391,265.687988 C12.7428257,266.65738 11.826087,268.125048 11.826087,269.796875 C11.826087,271.563055 12.9694748,272.91077 14.2391304,273.686035 C15.5087861,274.461371 16.9782602,274.916504 18.3695652,275.355957 C19.7608703,275.79548 21.0740021,276.219113 21.8913043,276.718262 C22.7086066,277.21734 22.9565203,277.539617 22.9565217,278.234375 C22.9565217,278.893203 22.626601,279.522711 21.8913043,280.080078 C21.1560077,280.637445 20.0375346,281.046875 18.7826087,281.046875 C16.1289009,281.046875 15.0706157,280.074418 14.5434783,278.476074 C14.3842621,277.99722 13.9843895,277.640593 13.4944887,277.540532 C13.0045879,277.440472 12.4990864,277.612178 12.1684017,277.990972 C11.8377171,278.369766 11.7320882,278.898099 11.8913043,279.376953 C12.6359005,281.634725 14.6217864,283.345696 17.3913043,283.771484 L17.3913043,285.96875 C17.3842155,286.47589 17.6478353,286.947602 18.0812202,287.203263 C18.5146052,287.458923 19.0506122,287.458923 19.4839972,287.203263 C19.9173821,286.947602 20.1810019,286.47589 20.173913,285.96875 L20.173913,283.749512 C21.442727,283.543974 22.6006873,283.057831 23.5434783,282.343262 C24.8223951,281.373863 25.7391304,279.906195 25.7391304,278.234375 C25.7391277,276.468195 24.5957433,275.098578 23.326087,274.323242 C22.0564306,273.547906 20.5869572,273.114676 19.1956522,272.675293 C17.8043471,272.23584 16.4912139,271.790094 15.673913,271.291016 C14.8566122,270.791938 14.6086957,270.491633 14.6086957,269.796875 C14.6086957,269.138117 14.9386129,268.486538 15.673913,267.929199 C16.4092132,267.37186 17.5276897,266.984375 18.7826087,266.984375 C21.4363165,266.984375 22.494599,267.934782 23.0217391,269.533203 C23.1809553,270.012058 23.5808279,270.368684 24.0707287,270.468745 C24.5606296,270.568806 25.0661311,270.397099 25.3968157,270.018306 C25.7275003,269.639512 25.8331293,269.111179 25.673913,268.632324 C24.929319,266.374522 22.9434317,264.703006 20.173913,264.281738 L20.173913,262.0625 C20.1825445,261.657505 20.0179821,261.268416 19.7223702,260.994879 C19.4267584,260.721341 19.0288083,260.589922 18.6304348,260.634277 Z M33.3478261,262.0625 L61.2173913,262.0625 L61.2173913,270.5 L37.2173913,270.5 C36.6277482,267.34869 35.2760334,264.458318 33.3478261,262.0625 Z M37.5434783,273.3125 L52.173913,273.3125 L52.173913,281.75 L35.9347826,281.75 C36.9809454,279.387533 37.5652174,276.766924 37.5652174,274.015625 C37.5652174,273.777668 37.5521099,273.548363 37.5434783,273.3125 Z" id="i-withdrawals-2"></path>
                </g>
            </g>
        </g>
    </g>
</svg>