<?xml version="1.0" encoding="utf-8"?><svg xmlns="http://www.w3.org/2000/svg" xmlns:xlink="http://www.w3.org/1999/xlink"><symbol viewBox="0 0 20 26" id="i-deposit&amp;w" xmlns="http://www.w3.org/2000/svg"><g fill="none"><path d="M8.25 25.044l.975.692c.214.153.5.153.714 0l.977-.692c1.811-1.271 3.682-2.605 5.16-4.023 2.114-2.035 3.09-3.943 3.09-6.003V7.433a3.744 3.744 0 0 0-1.95-3.295L11.342.948a3.683 3.683 0 0 0-3.518 0l-5.873 3.19A3.744 3.744 0 0 0 0 7.433v7.585c0 2.06.986 3.968 3.091 6.003 1.478 1.418 3.351 2.752 5.16 4.023z" fill="#F8868C" opacity=".8"/><path d="M8.75.596v24.803l-.5-.355c-1.808-1.271-3.68-2.605-5.159-4.023C.986 18.986 0 17.078 0 15.018V7.433C0 6.056.749 4.79 1.95 4.138L7.825.948C8.12.786 8.431.67 8.75.595zm10.417 6.833v7.591-7.59z" fill="#FFF"/></g></symbol></svg>